<svg xmlns="http://www.w3.org/2000/svg" xmlns:xlink="http://www.w3.org/1999/xlink" width="45" height="45" viewBox="0 0 45 45"><defs><linearGradient id="a" x1="0.5" x2="0.5" y2="1" gradientUnits="objectBoundingBox"><stop offset="0" stop-color="#fff" stop-opacity="0.702"/><stop offset="1" stop-color="#fff" stop-opacity="0.502"/></linearGradient><clipPath id="c"><rect width="45" height="45"/></clipPath></defs><g id="b" clip-path="url(#c)"><g transform="translate(-45)"><path d="M0,0H45V45H0Z" transform="translate(45 45) rotate(-90)" fill="#f30000"/><path d="M260,289v9.468a76.778,76.778,0,0,0-20.612,3.867C228.58,306,225,309,225,309V289.028Z" transform="translate(-175 -284)" fill="url(#a)"/><path d="M-218-232v-5h45l-5,5h-35v35l-5,5Z" transform="translate(263 237)" fill="rgba(255,255,255,0.5)"/><path d="M-218-232v-5h45l-5,5h-35v35l-5,5Z" transform="translate(-128 -192) rotate(180)" fill="rgba(0,0,0,0.5)"/></g></g></svg>