<svg xmlns="http://www.w3.org/2000/svg" xmlns:xlink="http://www.w3.org/1999/xlink" width="180" height="90" viewBox="0 0 180 90"><defs><linearGradient id="a" x1="0.5" x2="0.5" y2="1" gradientUnits="objectBoundingBox"><stop offset="0" stop-color="#fff" stop-opacity="0.702"/><stop offset="1" stop-color="#fff" stop-opacity="0.502"/></linearGradient><clipPath id="f"><rect width="180" height="90"/></clipPath></defs><g id="e" clip-path="url(#f)"><rect width="45" height="45" transform="translate(0 90) rotate(-90)" fill="#00d4ff"/><path d="M260,289v9.468a76.778,76.778,0,0,0-20.612,3.867C228.58,306,225,309,225,309V289.028Z" transform="translate(-220 -239)" fill="url(#a)"/><path d="M-218-232v-5h45l-5,5h-35v35l-5,5Z" transform="translate(218 282)" fill="rgba(255,255,255,0.5)"/><path d="M-218-232v-5h45l-5,5h-35v35l-5,5Z" transform="translate(-173 -147) rotate(180)" fill="rgba(0,0,0,0.5)"/><rect width="45" height="45" transform="translate(45 90) rotate(-90)" fill="#00d4ff"/><path d="M260,289v9.468a76.778,76.778,0,0,0-20.612,3.867C228.58,306,225,309,225,309V289.028Z" transform="translate(-175 -239)" fill="url(#a)"/><path d="M-218-232v-5h45l-5,5h-35v35l-5,5Z" transform="translate(263 282)" fill="rgba(255,255,255,0.5)"/><path d="M-218-232v-5h45l-5,5h-35v35l-5,5Z" transform="translate(-128 -147) rotate(180)" fill="rgba(0,0,0,0.5)"/><rect width="45" height="45" transform="translate(90 90) rotate(-90)" fill="#00d4ff"/><path d="M260,289v9.468a76.778,76.778,0,0,0-20.612,3.867C228.58,306,225,309,225,309V289.028Z" transform="translate(-130 -239)" fill="url(#a)"/><path d="M-218-232v-5h45l-5,5h-35v35l-5,5Z" transform="translate(308 282)" fill="rgba(255,255,255,0.5)"/><path d="M-218-232v-5h45l-5,5h-35v35l-5,5Z" transform="translate(-83 -147) rotate(180)" fill="rgba(0,0,0,0.5)"/><rect width="45" height="45" transform="translate(135 90) rotate(-90)" fill="#00d4ff"/><path d="M260,289v9.468a76.778,76.778,0,0,0-20.612,3.867C228.58,306,225,309,225,309V289.028Z" transform="translate(-85 -239)" fill="url(#a)"/><path d="M-218-232v-5h45l-5,5h-35v35l-5,5Z" transform="translate(353 282)" fill="rgba(255,255,255,0.5)"/><path d="M-218-232v-5h45l-5,5h-35v35l-5,5Z" transform="translate(-38 -147) rotate(180)" fill="rgba(0,0,0,0.5)"/></g></svg>